<svg xmlns="http://www.w3.org/2000/svg" viewBox="0 0 1080 1080"><defs><style>.cls-1{fill:none;}.cls-2{fill:#b2b2b2;}.cls-3{fill:#fff;}</style></defs><title>Asset 3</title><g id="Layer_2" data-name="Layer 2"><g id="Layer_1-2" data-name="Layer 1"><g id="layer101"><path class="cls-1" d="M0,540V0H1080V1080H0Z"/></g><g id="layer102"><path class="cls-2" d="M338,1058.83c-11.74-6.29-22.65-16.77-30.62-29.36-20.55-33.13-18.87-41.1,41.11-202.16,29.36-78.43,54.94-146.38,57-151s7.55-18.87,11.74-31.45c4.62-12.59,13.7-37.37,15.37-41.15,2.1-5.45-6.88.78-32.46-1.32-72.56-6.29-131.39-30.93-185.49-85.46-31.46-31-41.11-44-55.37-73.4-23.07-47.39-31.87-85.14-31.87-134.22.42-138.83,91-255,226.07-289.4C383.27,12.36,400,11.52,554,11.52c155.18,0,169.44.84,185.38,8,30.2,13.84,52,54.94,45.72,85.14-1.68,7.13-32.72,92.28-69.21,189.58L649.6,470.79l29.78,2.94c74.66,8,131.7,35.23,185.81,88.92,42.78,43.2,62.5,75.92,77.6,130.44,12.16,42.36,13,108.21,2.51,148.9-28.94,109-110.73,190.84-218.52,218.1-30.62,7.55-47,8.39-201.75,8.39C356.84,1068.48,356.42,1068.48,338,1058.83ZM727.62,918.32c123.31-64.17,122-234-2.52-295.27-26.42-13-29.78-13.84-77.59-13.84L599,606.48,541.39,759.36C488.12,901.13,481,924.62,488.12,931.75c1.68,1.67,50.34,2.51,108.22,1.67l104.85-1.25ZM540.55,316.44c47.82-127.5,57.05-155.6,53.27-162.73-4.19-8.39-7.55-8.39-107.79-7.13l-103.6,1.25-26,12.17c-31,14.26-68.78,51.59-81.36,80.11A167.08,167.08,0,0,0,304,419.2c34.81,38.59,74.65,53.69,137.15,52.43l41.52-.84Z"/></g><g id="layer103"><path class="cls-3" d="M338,1058.83c-11.74-6.29-22.65-16.77-30.62-29.36-20.55-33.13-18.87-41.94,39-195.45,28.1-75.08,53.27-139.67,55.36-143.86,3.78-6.72,10.91-7.55,85.57-7.55,44.87,0,81.78.83,81.78,1.25,0,.84-18.87,52.43-42.36,114.09C502.8,862.12,485.19,915,486,921.26h0a12.31,12.31,0,0,0,12.23,10.91h173.1a121.16,121.16,0,0,0,56.26-13.85h0c99.4-52,122.89-176.16,48.23-256.69-26.42-28.94-62.49-48.65-94.79-52.42-11.74-1.26-86.82-2.94-166.51-3.78-161.9-1.68-169.87-2.52-232.78-35.23-44.88-23.49-100.25-80.11-122.48-126.67-23.07-47.39-31.87-85.14-31.87-134.22.42-138.83,91-255,226.07-289.4C383.27,12.36,400,11.52,554,11.52c155.18,0,169.44.84,185.38,8,30.2,13.84,52,54.94,45.72,85.14-1.68,7.13-32.72,92.28-69.21,189.58L655.24,455.78a12.32,12.32,0,0,0,10.32,16.59l13.82,1.36c74.66,8,131.7,35.23,185.81,88.92,42.78,43.2,62.5,75.92,77.6,130.44,12.16,42.36,13,108.21,2.51,148.9-28.94,109-110.73,190.84-218.52,218.1-30.62,7.55-47,8.39-201.75,8.39C356.84,1068.48,356.42,1068.48,338,1058.83ZM540.55,316.44c47.82-127.5,57.05-155.6,53.27-162.73-4.19-8.39-7.55-8.39-107.79-7.13l-74.89.91A132.93,132.93,0,0,0,356.42,160h0c-31,14.26-68.78,51.59-81.36,80.11A167.08,167.08,0,0,0,304,419.2c34.81,38.59,74.65,53.69,137.15,52.43l33.17-.67a12.32,12.32,0,0,0,11.29-8Z"/></g></g></g></svg>